<?xml version="1.0" standalone="no"?>
<!DOCTYPE svg PUBLIC "-//W3C//DTD SVG 20010904//EN"
 "http://www.w3.org/TR/2001/REC-SVG-20010904/DTD/svg10.dtd">
<svg version="1.0" xmlns="http://www.w3.org/2000/svg"
 width="1080.000000pt" height="1080.000000pt" viewBox="0 0 1080.000000 1080.000000"
 preserveAspectRatio="xMidYMid meet">

<g transform="translate(0.000000,1080.000000) scale(0.100000,-0.100000)"
fill="#000000" stroke="none">
<path d="M5120 10793 c-36 -2 -139 -10 -230 -19 -2378 -223 -4329 -1991 -4790
-4339 -68 -346 -94 -638 -94 -1035 0 -397 26 -689 94 -1035 393 -2001 1878
-3611 3842 -4164 753 -212 1578 -256 2355 -126 1409 237 2664 1023 3499 2192
491 685 818 1492 943 2323 42 282 55 470 55 810 0 340 -13 528 -55 810 -159
1058 -639 2056 -1368 2847 -1092 1184 -2633 1814 -4251 1736z m814 -723 c740
-87 1423 -334 2040 -737 275 -180 493 -358 747 -612 254 -254 432 -472 612
-747 1024 -1567 1024 -3581 0 -5148 -291 -445 -690 -869 -1129 -1199 -557
-418 -1256 -723 -1955 -851 -301 -56 -476 -70 -849 -70 -373 0 -548 14 -849
70 -699 128 -1398 433 -1955 851 -356 268 -701 613 -969 969 -418 556 -724
1259 -851 1955 -55 301 -70 476 -70 849 0 373 15 548 70 849 127 696 433 1399
851 1955 268 356 613 701 969 969 650 488 1457 806 2275 897 253 27 266 28
594 24 215 -2 336 -8 469 -24z"/>
<path d="M5469 9819 c-19 -19 -20 -28 -14 -107 7 -94 -15 -335 -39 -432 -48
-192 -68 -247 -152 -420 -92 -188 -181 -320 -363 -540 -180 -217 -402 -423
-886 -825 -286 -237 -419 -364 -614 -584 -192 -217 -228 -262 -481 -597 -151
-200 -151 -200 -238 -333 -243 -373 -366 -823 -364 -1341 0 -191 5 -240 48
-490 32 -183 112 -489 152 -585 114 -270 240 -451 469 -675 219 -215 394 -353
633 -498 34 -20 285 -146 325 -163 100 -42 281 -92 445 -124 47 -9 106 -21
133 -27 52 -11 77 -6 77 15 0 22 40 107 73 157 17 25 61 77 99 116 53 57 68
78 68 102 0 34 -26 149 -39 172 -5 9 -11 30 -15 46 l-7 31 -132 7 c-73 4 -166
13 -207 22 -156 32 -266 58 -297 71 -18 7 -35 13 -38 12 -33 -4 -264 114 -359
184 -102 75 -319 258 -404 341 -163 158 -360 533 -401 761 -28 156 -33 202
-38 375 -6 190 -5 195 42 435 8 39 21 108 30 155 69 357 117 459 382 801 208
270 650 759 823 912 99 87 266 217 279 217 4 0 16 8 27 18 10 10 36 28 57 41
21 13 43 28 50 35 6 6 37 28 67 48 61 41 211 148 250 179 14 10 43 31 65 46
109 71 227 197 335 356 33 49 60 91 60 93 0 3 12 24 28 47 45 69 50 79 94 162
22 44 56 122 73 174 l33 95 7 -196 c5 -122 3 -268 -4 -389 -14 -226 -30 -329
-87 -539 -15 -56 -22 -82 -74 -256 -16 -56 -30 -106 -30 -112 0 -7 45 -26 57
-23 2 0 23 -8 48 -19 25 -11 49 -20 53 -20 4 0 25 -5 47 -11 41 -11 90 -2 147
27 15 8 30 14 33 15 2 0 24 9 47 19 46 21 133 27 143 10 13 -21 23 -8 37 48 9
31 23 82 31 112 26 88 54 206 77 324 20 97 22 130 17 320 -3 125 -11 250 -21
306 -29 169 -45 273 -61 395 -21 155 -80 393 -150 600 -7 22 -22 69 -34 105
-24 78 -82 243 -111 320 -11 30 -30 82 -41 115 -11 33 -24 69 -29 80 -5 11
-19 45 -30 75 -12 30 -26 64 -30 75 -39 94 -53 122 -67 137 -22 25 -78 23
-104 -3z"/>
<path d="M4780 6696 c-182 -55 -337 -143 -389 -220 -31 -47 -52 -133 -81 -343
-21 -148 -21 -163 11 -251 25 -69 57 -116 100 -144 71 -47 157 -98 167 -98 6
0 12 -4 14 -10 2 -8 79 -30 190 -54 16 -4 29 -15 34 -29 16 -54 74 -75 118
-42 22 17 92 20 101 5 12 -19 130 -11 206 15 65 22 75 23 105 10 19 -8 34 -17
34 -21 0 -6 -50 -127 -96 -231 -8 -17 -14 -39 -14 -49 0 -57 -142 -228 -199
-240 -14 -3 -91 -26 -171 -51 -205 -64 -257 -80 -325 -97 -121 -30 -265 -45
-490 -51 -219 -6 -234 -6 -290 15 -33 12 -69 23 -80 25 -11 2 -38 9 -60 14
-151 39 -309 31 -406 -19 -69 -35 -76 -48 -61 -106 14 -53 6 -71 -36 -76 -42
-5 -52 -38 -52 -172 l0 -119 34 -32 c35 -33 157 -101 206 -115 16 -5 47 -2 76
5 61 16 207 79 243 104 47 34 101 41 306 41 179 0 314 -13 386 -36 10 -2 30
-6 45 -9 16 -2 48 -10 71 -19 92 -33 123 -72 123 -154 0 -52 20 -132 50 -197
34 -75 50 -113 50 -120 0 -4 6 -21 14 -38 23 -53 76 -193 76 -201 0 -5 6 -22
14 -39 36 -81 76 -222 91 -322 9 -60 23 -144 31 -185 8 -41 22 -111 30 -155
26 -132 54 -266 70 -332 8 -34 14 -70 14 -80 0 -10 14 -30 30 -45 17 -14 30
-32 30 -39 0 -16 -89 -102 -170 -163 -36 -27 -89 -72 -117 -100 -45 -42 -53
-56 -53 -86 0 -44 19 -73 64 -94 42 -20 91 -20 187 -2 119 22 199 35 270 41
75 7 125 -8 170 -51 38 -36 165 -63 299 -64 161 -1 675 49 785 76 33 8 74 17
90 20 17 3 53 11 80 19 28 7 79 14 115 15 36 0 94 5 130 11 35 6 85 12 109 15
25 2 83 11 128 20 59 11 157 16 340 17 236 2 260 0 285 -16 35 -24 68 -93 68
-141 0 -55 34 -106 70 -106 15 0 33 7 40 15 7 8 31 25 52 38 30 16 60 52 119
140 l79 118 0 400 c0 418 -2 444 -44 478 -20 16 -65 10 -226 -31 -84 -22 -120
-43 -222 -126 -22 -17 -52 -35 -67 -38 -14 -3 -42 -11 -62 -18 -20 -7 -75 -14
-122 -15 -78 -2 -86 0 -101 21 -9 12 -16 27 -16 33 0 6 76 79 170 163 200 180
253 250 310 408 16 46 23 98 30 234 12 230 12 406 0 444 -40 130 -40 129 -28
162 11 30 9 35 -19 68 -27 30 -32 45 -38 113 -8 96 -21 172 -42 238 -22 69
-101 228 -159 316 -26 41 -57 90 -69 109 -12 19 -48 76 -80 125 -32 50 -70
108 -83 130 -14 22 -38 59 -54 82 -15 23 -28 43 -28 45 0 3 -37 61 -82 131
-46 70 -108 166 -138 213 -177 279 -421 548 -560 618 -38 19 -247 56 -319 56
-63 0 -161 28 -199 57 -18 13 -44 42 -58 64 -20 32 -30 39 -56 39 -28 0 -45
-14 -123 -95 -50 -52 -100 -95 -111 -96 -56 -3 -72 5 -149 82 -44 43 -87 79
-96 79 -8 0 -19 4 -25 8 -9 8 -85 34 -204 69 -30 9 -75 22 -99 29 -69 21 -203
17 -291 -10z m1065 -2232 c46 -6 85 -28 85 -49 0 -21 -71 -38 -107 -25 -57 22
-133 61 -133 69 0 22 17 23 155 5z m340 -738 c143 -6 161 -9 176 -37 12 -24 3
-42 -50 -94 -22 -22 -40 -45 -41 -50 0 -6 -21 -31 -46 -55 -25 -25 -89 -93
-141 -153 -130 -147 -165 -152 -178 -28 -3 31 -12 99 -20 151 -37 254 -37 254
-17 271 16 12 35 14 103 8 46 -4 143 -10 214 -13z"/>
</g>
</svg>
